<?xml version="1.0" standalone="no"?><!DOCTYPE svg PUBLIC "-//W3C//DTD SVG 1.1//EN" "http://www.w3.org/Graphics/SVG/1.1/DTD/svg11.dtd"><svg t="1708419894618" class="icon" viewBox="0 0 1024 1024" version="1.1" xmlns="http://www.w3.org/2000/svg" p-id="69463" width="1024" height="1024" xmlns:xlink="http://www.w3.org/1999/xlink"><path d="M0 0m78.769231 0l866.461538 0q78.769231 0 78.769231 78.769231l0 866.461538q0 78.769231-78.769231 78.769231l-866.461538 0q-78.769231 0-78.769231-78.769231l0-866.461538q0-78.769231 78.769231-78.769231Z" fill="#0E73FF" p-id="69464"></path><path d="M160.295385 655.478154c65.220923 0 92.672-21.070769 103.384615-82.313846L302.276923 354.461538H248.950154l-35.406769 202.003693c-7.168 40.172308-16.699077 54.862769-51.672616 54.862769H118.153846l7.561846 44.110769h34.579693z m229.336615 0c46.907077 0 58.840615-5.592615 66.008615-46.946462l4.332308-25.048615c2.402462-13.115077 4.017231-24.260923 4.017231-33.004308 0-22.646154-11.539692-29.420308-46.552616-29.420307H369.742769c-9.137231 0-11.933538-0.787692-11.933538-5.947077 0-1.969231 0.393846-5.159385 1.181538-9.137231l3.190154-17.92c2.756923-15.517538 5.553231-17.880615 21.070769-17.880616h83.889231l16.699077-40.172307H383.251692c-44.898462 0-56.871385 5.159385-64.787692 50.924307l-3.190154 17.880616c-2.363077 13.115077-3.977846 24.260923-3.977846 33.004308 0 22.646154 11.539692 29.420308 46.513231 29.420307h45.725538c9.137231 0 11.933538 0.787692 11.933539 5.947077 0 1.969231-0.393846 5.198769-1.181539 9.176616l-3.584 21.070769c-2.756923 15.478154-5.592615 17.880615-21.070769 17.880615H295.384615l7.168 40.172308h87.04z m201.649231 2.756923c66.441846 0 81.92-14.296615 93.065846-77.902769l10.358154-58.486154c3.544615-20.243692 5.159385-33.398154 5.159384-42.535385 0-38.203077-21.070769-52.066462-71.561846-52.066461h-27.451077c-66.402462 0-81.92 14.296615-93.026461 77.902769l-10.358154 58.446769c-3.544615 20.283077-5.159385 33.437538-5.159385 42.535385 0 38.203077 21.070769 52.105846 71.561846 52.105846h27.451077z m0.787692-40.172308h-17.92c-26.230154 0-34.579692-3.150769-34.579692-20.243692 0-7.168 1.575385-17.092923 4.765538-34.225231l10.358154-58.446769c5.12-29.026462 10.318769-38.163692 40.566154-38.163692h17.880615c25.836308 0 34.579692 3.150769 34.579693 20.283077 0 7.168-1.575385 17.092923-4.765539 34.185846l-10.358154 58.446769c-5.12 29.026462-10.318769 38.203077-40.566154 38.203077z m165.100308 37.415385l32.216615-184.516923h58.052923c18.707692 0 24.654769 2.756923 24.654769 16.699077 0 5.986462-1.181538 15.911385-3.938461 31.428923l-24.300308 136.388923h49.309539l23.867077-136.388923c3.977846-23.079385 6.380308-37.809231 6.380307-48.521846 0-28.632615-15.911385-40.566154-66.835692-40.566154h-109.331692l-39.384616 225.476923h49.309539z" fill="#FFFFFF" p-id="69465"></path></svg>